<svg width="194" height="213" viewBox="0 0 194 213" fill="none" xmlns="http://www.w3.org/2000/svg">
<path d="M170.147 169.348C135.703 209.02 87.1327 216.783 68.5928 209.02C34.8336 194.886 34.688 147.357 58.0267 105.303C81.3653 63.2572 135.004 46.2247 164.54 61.3202C202.807 80.8723 200.768 134.082 170.147 169.348Z" fill="#FCD105"/>
<path d="M62.7745 97.6717C62.7745 97.6717 45.4071 82.0738 60.2914 66.7088C60.2914 66.7088 75.8966 52.1668 117.484 45.8533C111.047 41.2293 103.342 37.8796 94.2981 36.1246C58.6748 29.1922 17.1604 58.7788 4.91211 107.553C-7.33614 156.328 5.88061 201.17 42.9967 210.491C80.1129 219.812 126.419 189.228 138.667 140.453C146.59 108.908 142.585 76.9618 127.948 56.8272C111.556 59.0336 80.5862 70.5173 62.7745 97.6717Z" fill="#005CA3"/>
<path d="M48.8878 69.112C38.3799 77.0347 -11.4432 120.777 35.4234 207.957L39.88 209.603C39.88 209.603 2.14491 121.418 86.9214 112.687C87.6569 112.614 87.6788 111.558 86.9506 111.457C71.2434 109.367 36.6759 101.167 49.8271 69.8547C50.0747 69.2722 49.3975 68.726 48.8878 69.112Z" fill="#7DC354"/>
<path d="M28.1634 77.2241C31.433 72.6001 39.4505 63.0971 51.8808 60.0751C51.8808 60.0751 57.852 24.4081 65.1995 0.807249C65.4034 0.159155 64.5732 -0.292326 64.1363 0.224692C57.3131 8.2931 34.6662 37.3918 27.042 76.7362C26.9182 77.3916 27.7702 77.7702 28.1562 77.2241H28.1634Z" fill="#7DC354"/>
<path d="M54.9537 175.166C62.8886 175.166 69.321 168.734 69.321 160.799C69.321 152.864 62.8886 146.432 54.9537 146.432C47.0189 146.432 40.5864 152.864 40.5864 160.799C40.5864 168.734 47.0189 175.166 54.9537 175.166Z" fill="white"/>
</svg>
